<svg width="60" height="66" viewBox="0 0 60 66" fill="none" xmlns="http://www.w3.org/2000/svg">
<path d="M30 4.12162C31.1486 4.12162 32.2635 4.42568 33.2432 5L52.6351 16.1824C54.6284 17.3311 55.8784 19.4932 55.8784 21.7905V44.1892C55.8784 46.4865 54.6284 48.6486 52.6351 49.7973L33.2432 60.9797C32.2635 61.5541 31.1486 61.8581 30 61.8581C28.8514 61.8581 27.7365 61.5541 26.7568 60.9797L7.36486 49.7973C5.37162 48.6486 4.12162 46.4865 4.12162 44.1892V21.7905C4.12162 19.4932 5.37162 17.3311 7.36486 16.1824L26.7568 5C27.7365 4.39189 28.8514 4.12162 30 4.12162ZM30 0C28.1757 0 26.3513 0.472973 24.6959 1.41892L5.30405 12.6013C2.02703 14.4932 0 18.0068 0 21.7905V44.1892C0 47.973 2.02703 51.4865 5.30405 53.3784L24.6959 64.5608C26.3513 65.5068 28.1757 65.9797 30 65.9797C31.8243 65.9797 33.6486 65.5068 35.3041 64.5608L54.6959 53.3784C57.973 51.4865 60 47.973 60 44.1892V21.7905C60 18.0068 57.973 14.4932 54.6959 12.6013L35.2703 1.41892C33.6486 0.472973 31.8243 0 30 0Z" fill="#263238"/>
<path d="M26.8579 36.6553L28.2768 35.5742V29.5944C28.2768 28.9188 27.8038 28.3444 27.2633 28.3444H25.0335V23.4458C25.0335 22.9728 24.6957 22.6012 24.2565 22.6012C23.8173 22.6012 23.4795 22.9728 23.4795 23.4458V28.3782H21.2835C20.7092 28.3782 20.27 28.9188 20.27 29.6282V33.6823L26.8579 36.6553Z" fill="#263238"/>
<path d="M15.338 31.3853L16.8921 32.0947V26.4528C16.8921 25.7772 16.4191 25.2028 15.8786 25.2028H13.6489V18.8853C13.6489 18.4123 13.311 18.0407 12.8718 18.0407C12.4326 18.0407 12.0948 18.4123 12.0948 18.8853V25.2366H9.86508C9.29075 25.2366 8.85156 25.7772 8.85156 26.4866V37.838L15.338 31.3853Z" fill="#263238"/>
<path d="M51.115 24.1219V21.8584C51.115 21.3854 50.642 21.0138 50.1015 21.0138H47.8718V16.7571C47.8718 16.453 47.5339 16.1827 47.0947 16.1827C46.6555 16.1827 46.3177 16.453 46.3177 16.7571V21.0476H44.088C43.5137 21.0476 43.0745 21.4192 43.0745 21.8922V26.5206L51.115 24.1219Z" fill="#263238"/>
<path d="M38.7838 27.7703L39.7297 27.5V16.7568C39.7297 16.0811 39.2568 15.5068 38.7162 15.5068H36.4865V12.7027C36.4865 12.2298 36.1487 11.8581 35.7095 11.8581C35.2703 11.8581 34.9325 12.2298 34.9325 12.7027V15.5068H32.7027C32.1284 15.5068 31.6892 16.0473 31.6892 16.7568V33.0744L38.7838 27.7703Z" fill="#263238"/>
<path d="M27.1957 39.8649L20.27 36.723V44.8649C20.27 45.5405 20.743 46.1149 21.2835 46.1149H23.5133V47.7703C23.5133 48.2432 23.8511 48.6149 24.2903 48.6149C24.7295 48.6149 25.0673 48.2432 25.0673 47.7703V46.1149H27.297C27.8714 46.1149 28.3106 45.5743 28.3106 44.8649V39.0878L27.1957 39.8649Z" fill="#B72025"/>
<path d="M43.0745 29.4255V33.2431C43.0745 33.716 43.5474 34.0876 44.088 34.0876H46.3177V38.5133C46.3177 38.8174 46.6555 39.0876 47.0947 39.0876C47.5339 39.0876 47.8718 38.8174 47.8718 38.5133V34.0876H50.1015C50.6758 34.0876 51.115 33.716 51.115 33.2431V27.162L43.0745 29.4255Z" fill="#B72025"/>
<path d="M15.9458 34.7295L8.88501 41.7565V43.3443C8.88501 44.02 9.35798 44.5943 9.89852 44.5943H12.1283V50.2024C12.1283 50.6754 12.4661 51.047 12.9053 51.047C13.3445 51.047 13.6823 50.6754 13.6823 50.2024V44.5943H15.8783C16.4526 44.5943 16.8918 44.0538 16.8918 43.3443V35.1686L15.9458 34.7295Z" fill="#B72025"/>
<path d="M31.6892 36.5543V40.4395C31.6892 41.1152 32.1622 41.6895 32.7027 41.6895H34.9325V44.4935C34.9325 44.9665 35.2703 45.3381 35.7095 45.3381C36.1487 45.3381 36.4865 44.9665 36.4865 44.4935V41.6895H38.7162C39.2906 41.6895 39.7297 41.1489 39.7297 40.4395V30.5746L31.6892 36.5543Z" fill="#B72025"/>
</svg>
